<svg id="visual" viewBox="0 0 900 600" width="900" height="600" xmlns="http://www.w3.org/2000/svg" xmlns:xlink="http://www.w3.org/1999/xlink" version="1.1"><rect x="0" y="0" width="900" height="600" fill="#0e1315"></rect><defs><linearGradient id="grad1_0" x1="33.3%" y1="0%" x2="100%" y2="100%"><stop offset="20%" stop-color="#0e1315" stop-opacity="1"></stop><stop offset="80%" stop-color="#0e1315" stop-opacity="1"></stop></linearGradient></defs><defs><linearGradient id="grad2_0" x1="0%" y1="0%" x2="66.7%" y2="100%"><stop offset="20%" stop-color="#0e1315" stop-opacity="1"></stop><stop offset="80%" stop-color="#0e1315" stop-opacity="1"></stop></linearGradient></defs><g transform="translate(900, 0)"><path d="M0 216.3C-22.5 195.6 -45.1 174.8 -67.4 162.6C-89.6 150.4 -111.7 146.7 -135.8 135.8C-159.9 124.8 -186.1 106.6 -199.9 82.8C-213.6 58.9 -215 29.5 -216.3 0L0 0Z" fill="#9eade6"></path></g><g transform="translate(0, 600)"><path d="M0 -216.3C29.3 -212.8 58.6 -209.2 81.1 -195.9C103.6 -182.5 119.3 -159.3 140 -140C160.7 -120.8 186.3 -105.5 199.9 -82.8C213.4 -60.1 214.9 -30.1 216.3 0L0 0Z" fill="#9eade6"></path></g></svg>