<svg id="visual" viewBox="0 0 960 540" width="960" height="540" xmlns="http://www.w3.org/2000/svg" xmlns:xlink="http://www.w3.org/1999/xlink" version="1.1"><rect x="0" y="0" width="960" height="540" fill="#0e1315"></rect><defs><linearGradient id="grad1_0" x1="43.8%" y1="0%" x2="100%" y2="100%"><stop offset="14.444444444444446%" stop-color="#0e1315" stop-opacity="1"></stop><stop offset="85.55555555555554%" stop-color="#0e1315" stop-opacity="1"></stop></linearGradient></defs><defs><linearGradient id="grad2_0" x1="0%" y1="0%" x2="56.3%" y2="100%"><stop offset="14.444444444444446%" stop-color="#0e1315" stop-opacity="1"></stop><stop offset="85.55555555555554%" stop-color="#0e1315" stop-opacity="1"></stop></linearGradient></defs><g transform="translate(960, 0)"><path d="M0 459C-56.1 406 -112.3 352.9 -185.5 321.3C-258.7 289.7 -349.1 279.5 -397.5 229.5C-445.9 179.5 -452.5 89.8 -459 0L0 0Z" fill="#9eade6"></path></g><g transform="translate(0, 540)"><path d="M0 -459C57.5 -408.3 114.9 -357.5 188 -325.6C261.1 -293.7 349.7 -280.6 397.5 -229.5C445.3 -178.4 452.1 -89.2 459 0L0 0Z" fill="#9eade6"></path></g></svg>