<svg id="visual" viewBox="0 0 960 540" width="960" height="540" xmlns="http://www.w3.org/2000/svg" xmlns:xlink="http://www.w3.org/1999/xlink" version="1.1"><rect x="0" y="0" width="960" height="540" fill="#ffffff"></rect><defs><linearGradient id="grad1_0" x1="43.8%" y1="0%" x2="100%" y2="100%"><stop offset="14.444444444444446%" stop-color="#ffffff" stop-opacity="1"></stop><stop offset="85.55555555555554%" stop-color="#ffffff" stop-opacity="1"></stop></linearGradient></defs><defs><linearGradient id="grad2_0" x1="0%" y1="0%" x2="56.3%" y2="100%"><stop offset="14.444444444444446%" stop-color="#ffffff" stop-opacity="1"></stop><stop offset="85.55555555555554%" stop-color="#ffffff" stop-opacity="1"></stop></linearGradient></defs><g transform="translate(960, 0)"><path d="M0 203C-49.5 226.2 -98.9 249.4 -135 233.8C-171.1 218.3 -193.8 163.9 -205.2 118.5C-216.7 73.1 -216.8 36.5 -217 0L0 0Z" fill="#5472d4"></path></g><g transform="translate(0, 540)"><path d="M0 -219C36 -214.8 71.9 -210.5 115 -199.2C158.1 -187.8 208.3 -169.4 233.8 -135C259.3 -100.6 260.2 -50.3 261 0L0 0Z" fill="#5472d4"></path></g></svg>