<svg id="visual" viewBox="0 0 960 540" width="960" height="540" xmlns="http://www.w3.org/2000/svg" xmlns:xlink="http://www.w3.org/1999/xlink" version="1.1"><rect x="0" y="0" width="960" height="540" fill="#0e1315"></rect><path d="M0 351L17.8 358.8C35.7 366.7 71.3 382.3 106.8 378.5C142.3 374.7 177.7 351.3 213.2 342.2C248.7 333 284.3 338 320 340.3C355.7 342.7 391.3 342.3 426.8 343.7C462.3 345 497.7 348 533.2 354.7C568.7 361.3 604.3 371.7 640 367C675.7 362.3 711.3 342.7 746.8 345.7C782.3 348.7 817.7 374.3 853.2 386C888.7 397.7 924.3 395.3 942.2 394.2L960 393L960 541L942.2 541C924.3 541 888.7 541 853.2 541C817.7 541 782.3 541 746.8 541C711.3 541 675.7 541 640 541C604.3 541 568.7 541 533.2 541C497.7 541 462.3 541 426.8 541C391.3 541 355.7 541 320 541C284.3 541 248.7 541 213.2 541C177.7 541 142.3 541 106.8 541C71.3 541 35.7 541 17.8 541L0 541Z" fill="#9eade6"></path><path d="M0 417L17.8 416.5C35.7 416 71.3 415 106.8 406.5C142.3 398 177.7 382 213.2 382C248.7 382 284.3 398 320 401.5C355.7 405 391.3 396 426.8 390C462.3 384 497.7 381 533.2 382.2C568.7 383.3 604.3 388.7 640 392.8C675.7 397 711.3 400 746.8 401.3C782.3 402.7 817.7 402.3 853.2 394.5C888.7 386.7 924.3 371.3 942.2 363.7L960 356L960 541L942.2 541C924.3 541 888.7 541 853.2 541C817.7 541 782.3 541 746.8 541C711.3 541 675.7 541 640 541C604.3 541 568.7 541 533.2 541C497.7 541 462.3 541 426.8 541C391.3 541 355.7 541 320 541C284.3 541 248.7 541 213.2 541C177.7 541 142.3 541 106.8 541C71.3 541 35.7 541 17.8 541L0 541Z" fill="#92a0d4"></path><path d="M0 457L17.8 447.8C35.7 438.7 71.3 420.3 106.8 420.8C142.3 421.3 177.7 440.7 213.2 443.8C248.7 447 284.3 434 320 424.7C355.7 415.3 391.3 409.7 426.8 413.3C462.3 417 497.7 430 533.2 431.2C568.7 432.3 604.3 421.7 640 420C675.7 418.3 711.3 425.7 746.8 426.2C782.3 426.7 817.7 420.3 853.2 415.5C888.7 410.7 924.3 407.3 942.2 405.7L960 404L960 541L942.2 541C924.3 541 888.7 541 853.2 541C817.7 541 782.3 541 746.8 541C711.3 541 675.7 541 640 541C604.3 541 568.7 541 533.2 541C497.7 541 462.3 541 426.8 541C391.3 541 355.7 541 320 541C284.3 541 248.7 541 213.2 541C177.7 541 142.3 541 106.8 541C71.3 541 35.7 541 17.8 541L0 541Z" fill="#8693c3"></path><path d="M0 432L17.8 433.7C35.7 435.3 71.3 438.7 106.8 438.8C142.3 439 177.7 436 213.2 442.8C248.7 449.7 284.3 466.3 320 471.5C355.7 476.7 391.3 470.3 426.8 464.8C462.3 459.3 497.7 454.7 533.2 453.8C568.7 453 604.3 456 640 461.3C675.7 466.7 711.3 474.3 746.8 471.5C782.3 468.7 817.7 455.3 853.2 454.3C888.7 453.3 924.3 464.7 942.2 470.3L960 476L960 541L942.2 541C924.3 541 888.7 541 853.2 541C817.7 541 782.3 541 746.8 541C711.3 541 675.7 541 640 541C604.3 541 568.7 541 533.2 541C497.7 541 462.3 541 426.8 541C391.3 541 355.7 541 320 541C284.3 541 248.7 541 213.2 541C177.7 541 142.3 541 106.8 541C71.3 541 35.7 541 17.8 541L0 541Z" fill="#7a86b2"></path><path d="M0 492L17.8 495.3C35.7 498.7 71.3 505.3 106.8 508.8C142.3 512.3 177.7 512.7 213.2 508C248.7 503.3 284.3 493.7 320 489.5C355.7 485.3 391.3 486.7 426.8 488.7C462.3 490.7 497.7 493.3 533.2 497.5C568.7 501.7 604.3 507.3 640 504.3C675.7 501.3 711.3 489.7 746.8 486.3C782.3 483 817.7 488 853.2 491.3C888.7 494.7 924.3 496.3 942.2 497.2L960 498L960 541L942.2 541C924.3 541 888.7 541 853.2 541C817.7 541 782.3 541 746.8 541C711.3 541 675.7 541 640 541C604.3 541 568.7 541 533.2 541C497.7 541 462.3 541 426.8 541C391.3 541 355.7 541 320 541C284.3 541 248.7 541 213.2 541C177.7 541 142.3 541 106.8 541C71.3 541 35.7 541 17.8 541L0 541Z" fill="#6f79a1"></path></svg>