<svg id="visual" viewBox="0 0 540 960" width="540" height="960" xmlns="http://www.w3.org/2000/svg" xmlns:xlink="http://www.w3.org/1999/xlink" version="1.1"><rect x="0" y="0" width="540" height="960" fill="#0e1315"></rect><path d="M0 601L15 617C30 633 60 665 90 676.7C120 688.3 150 679.7 180 682.7C210 685.7 240 700.3 270 707.2C300 714 330 713 360 704.2C390 695.3 420 678.7 450 671.2C480 663.7 510 665.3 525 666.2L540 667L540 961L525 961C510 961 480 961 450 961C420 961 390 961 360 961C330 961 300 961 270 961C240 961 210 961 180 961C150 961 120 961 90 961C60 961 30 961 15 961L0 961Z" fill="#9eade6"></path><path d="M0 701L15 700.3C30 699.7 60 698.3 90 708C120 717.7 150 738.3 180 727.8C210 717.3 240 675.7 270 664.5C300 653.3 330 672.7 360 689.5C390 706.3 420 720.7 450 724.7C480 728.7 510 722.3 525 719.2L540 716L540 961L525 961C510 961 480 961 450 961C420 961 390 961 360 961C330 961 300 961 270 961C240 961 210 961 180 961C150 961 120 961 90 961C60 961 30 961 15 961L0 961Z" fill="#92a0d4"></path><path d="M0 812L15 800.3C30 788.7 60 765.3 90 765C120 764.7 150 787.3 180 788.3C210 789.3 240 768.7 270 757.8C300 747 330 746 360 740.5C390 735 420 725 450 728C480 731 510 747 525 755L540 763L540 961L525 961C510 961 480 961 450 961C420 961 390 961 360 961C330 961 300 961 270 961C240 961 210 961 180 961C150 961 120 961 90 961C60 961 30 961 15 961L0 961Z" fill="#8693c3"></path><path d="M0 832L15 832.2C30 832.3 60 832.7 90 828.3C120 824 150 815 180 821C210 827 240 848 270 852.5C300 857 330 845 360 829C390 813 420 793 450 789.5C480 786 510 799 525 805.5L540 812L540 961L525 961C510 961 480 961 450 961C420 961 390 961 360 961C330 961 300 961 270 961C240 961 210 961 180 961C150 961 120 961 90 961C60 961 30 961 15 961L0 961Z" fill="#7a86b2"></path><path d="M0 875L15 870.5C30 866 60 857 90 863.5C120 870 150 892 180 895.5C210 899 240 884 270 883.5C300 883 330 897 360 894C390 891 420 871 450 859.7C480 848.3 510 845.7 525 844.3L540 843L540 961L525 961C510 961 480 961 450 961C420 961 390 961 360 961C330 961 300 961 270 961C240 961 210 961 180 961C150 961 120 961 90 961C60 961 30 961 15 961L0 961Z" fill="#6f79a1"></path></svg>